<svg width="72" height="72" viewBox="0 0 72 72" fill="none" xmlns="http://www.w3.org/2000/svg">
<path d="M53.1111 52.2H18.8889V25.8H53.1111M45.7778 9V13.8H26.2222V9H21.3333V13.8H18.8889C16.1756 13.8 14 15.936 14 18.6V52.2C14 53.473 14.5151 54.6939 15.4319 55.5941C16.3488 56.4943 17.5923 57 18.8889 57H53.1111C54.4077 57 55.6512 56.4943 56.5681 55.5941C57.4849 54.6939 58 53.473 58 52.2V18.6C58 17.327 57.4849 16.1061 56.5681 15.2059C55.6512 14.3057 54.4077 13.8 53.1111 13.8H50.6667V9M48.2222 35.4H36V47.4H48.2222V35.4Z" fill="#4361EE"/>
</svg>
