<svg width="68" height="68" viewBox="0 0 68 68" fill="none" xmlns="http://www.w3.org/2000/svg">
<path d="M35 6C30.4929 6.00508 26.1718 7.78651 22.9848 10.9535C19.7978 14.1204 18.0051 18.4143 18 22.893C18 37.3481 33.4545 48.2652 34.1133 48.7221C34.3731 48.903 34.6827 49 35 49C35.3173 49 35.6269 48.903 35.8867 48.7221C36.5455 48.2652 52 37.3481 52 22.893C51.9949 18.4143 50.2022 14.1204 47.0152 10.9535C43.8282 7.78651 39.5071 6.00508 35 6ZM35 17.7501C36.2226 17.7501 37.4178 18.1104 38.4344 18.7854C39.451 19.4604 40.2434 20.4198 40.7113 21.5422C41.1791 22.6647 41.3016 23.8998 41.063 25.0914C40.8245 26.2831 40.2357 27.3776 39.3712 28.2367C38.5067 29.0958 37.4052 29.6809 36.206 29.9179C35.0069 30.1549 33.7639 30.0333 32.6343 29.5683C31.5047 29.1034 30.5393 28.316 29.86 27.3058C29.1807 26.2957 28.8182 25.108 28.8182 23.893C28.8182 22.2638 29.4695 20.7013 30.6288 19.5493C31.7881 18.3973 33.3605 17.7501 35 17.7501Z" fill="white"/>
<path fill-rule="evenodd" clip-rule="evenodd" d="M49.7619 40.4257C50.0794 39.3677 51.1944 38.7674 52.2523 39.0849C54.6182 39.7949 56.6786 40.6799 58.1922 41.7534C59.6538 42.7901 61 44.299 61 46.3043C61 48.3094 59.6542 49.8183 58.1925 50.8551C56.679 51.9287 54.6185 52.8136 52.2525 53.5234C47.495 54.9506 41.0423 55.8043 34 55.8043C26.9577 55.8043 20.505 54.9506 15.7475 53.5234C13.3815 52.8136 11.321 51.9287 9.80748 50.8551C8.34581 49.8183 7 48.3094 7 46.3043C7 44.2992 8.34548 42.7904 9.80722 41.7535C11.3208 40.6798 13.3813 39.7948 15.7478 39.0849C16.8058 38.7675 17.9208 39.3678 18.2382 40.4258C18.5555 41.4838 17.9552 42.5988 16.8972 42.9162C14.7387 43.5637 13.138 44.295 12.1215 45.016C11.0533 45.7738 11 46.2381 11 46.3043C11 46.3704 11.0532 46.8346 12.1217 47.5925C13.1382 48.3135 14.7388 49.0447 16.8969 49.6921C21.1875 50.9792 27.2348 51.8043 34 51.8043C40.7652 51.8043 46.8125 50.9792 51.1031 49.6921C53.2612 49.0447 54.8618 48.3135 55.8783 47.5925C56.9468 46.8346 57 46.3704 57 46.3043C57 46.2383 56.9468 45.7741 55.8781 45.0161C54.8614 44.2949 53.2606 43.5637 51.1027 42.9161C50.0447 42.5987 49.4444 41.4836 49.7619 40.4257Z" fill="white"/>
</svg>
