<svg width="72" height="72" viewBox="0 0 72 72" fill="none" xmlns="http://www.w3.org/2000/svg">
<path d="M58.432 12.2098L59.7759 13.5391C61.6277 15.3732 61.3476 18.6246 59.145 20.8012L31.4315 48.2158L22.4526 51.4649C21.3251 51.875 20.2273 51.3432 20.004 50.282C19.9286 49.897 19.9641 49.4988 20.1065 49.1328L23.4548 40.1741L51.0908 12.8339C53.2934 10.6573 56.5802 10.3757 58.432 12.2098ZM30.222 14.9361C30.5212 14.9361 30.8173 14.9944 31.0937 15.1076C31.37 15.2209 31.6211 15.3868 31.8327 15.5961C32.0442 15.8053 32.2119 16.0537 32.3264 16.3271C32.4409 16.6004 32.4998 16.8934 32.4998 17.1893C32.4998 17.4852 32.4409 17.7782 32.3264 18.0516C32.2119 18.3249 32.0442 18.5733 31.8327 18.7826C31.6211 18.9918 31.37 19.1578 31.0937 19.271C30.8173 19.3842 30.5212 19.4425 30.222 19.4425H21.111C19.9028 19.4425 18.7441 19.9173 17.8898 20.7624C17.0355 21.6075 16.5555 22.7537 16.5555 23.9489V50.9872C16.5555 52.1824 17.0355 53.3286 17.8898 54.1737C18.7441 55.0188 19.9028 55.4936 21.111 55.4936H48.4441C49.6523 55.4936 50.811 55.0188 51.6653 54.1737C52.5196 53.3286 52.9996 52.1824 52.9996 50.9872V41.9745C52.9996 41.3769 53.2396 40.8038 53.6667 40.3812C54.0939 39.9586 54.6732 39.7213 55.2773 39.7213C55.8814 39.7213 56.4608 39.9586 56.888 40.3812C57.3151 40.8038 57.5551 41.3769 57.5551 41.9745V50.9872C57.5551 53.3776 56.5952 55.67 54.8865 57.3602C53.1779 59.0504 50.8605 60 48.4441 60H21.111C18.6946 60 16.3772 59.0504 14.6686 57.3602C12.9599 55.67 12 53.3776 12 50.9872V23.9489C12 21.5586 12.9599 19.2661 14.6686 17.5759C16.3772 15.8857 18.6946 14.9361 21.111 14.9361H30.222Z" fill="#4361EE"/>
</svg>
