<svg width="42" height="49" viewBox="0 0 42 49" fill="none" xmlns="http://www.w3.org/2000/svg">
<path d="M29.8046 39.4705L11.2686 24.499L29.8046 9.52948L30.2479 10.0693L12.3806 24.499L30.2479 38.9287L29.8046 39.4705Z" fill="#2C2C2C"/>
<path d="M9.95573 30.5298C6.56453 30.4696 3.8061 27.7646 3.8061 24.501C3.8061 21.2373 6.56453 18.5323 9.95573 18.4721C10.9863 18.4533 11.8256 17.6087 11.8256 16.5873C11.8256 16.0851 11.6191 15.596 11.2573 15.2423C10.8954 14.8887 10.399 14.6931 9.88942 14.7006C7.24845 14.7476 4.76852 15.7822 2.9081 17.6162C1.03252 19.4635 0 21.9088 0 24.4991C0 27.0893 1.03252 29.5347 2.9081 31.3819C4.76852 33.216 7.24845 34.2524 9.89131 34.2976C9.90268 34.2976 9.91215 34.2976 9.92352 34.2976C10.4199 34.2976 10.9049 34.1019 11.2592 33.7558C11.621 33.4041 11.8275 32.9131 11.8275 32.4109C11.8275 31.3894 10.9882 30.5448 9.95762 30.526L9.95573 30.5298Z" fill="#4361EE"/>
<path d="M13.6778 25.2618C14.1019 24.2454 13.6157 23.0801 12.592 22.6591C11.5683 22.238 10.3947 22.7207 9.97066 23.7372C9.54663 24.7536 10.0328 25.9189 11.0565 26.3399C12.0802 26.7609 13.2538 26.2782 13.6778 25.2618Z" fill="#4361EE"/>
<path d="M31.8962 15.8292C35.2874 15.769 38.0458 13.064 38.0458 9.80034C38.0458 6.53668 35.2874 3.83171 31.8962 3.77151C30.8656 3.7527 30.0263 2.9081 30.0263 1.88668C30.0263 1.38443 30.2328 0.895355 30.5947 0.541713C30.9565 0.188072 31.4529 -0.00755913 31.9625 -3.48453e-05C34.6035 0.0469919 37.0834 1.08158 38.9438 2.91562C40.8194 4.76284 41.8519 7.20823 41.8519 9.79846C41.8519 12.3887 40.8194 14.8341 38.9438 16.6813C37.0834 18.5153 34.6035 19.5518 31.9606 19.597C31.9493 19.597 31.9398 19.597 31.9284 19.597C31.432 19.597 30.947 19.4013 30.5928 19.0552C30.2309 18.7034 30.0244 18.2125 30.0244 17.7102C30.0244 16.6888 30.8637 15.8442 31.8943 15.8254L31.8962 15.8292Z" fill="#F72585"/>
<path d="M30.7947 11.6412C31.8184 11.2202 32.3045 10.0549 31.8805 9.03848C31.4564 8.02205 30.2828 7.53937 29.2591 7.96039C28.2354 8.38141 27.7493 9.5467 28.1733 10.5631C28.5973 11.5796 29.771 12.0622 30.7947 11.6412Z" fill="#F72585"/>
<path d="M31.8962 45.2285C35.2874 45.1683 38.0458 42.4633 38.0458 39.1996C38.0458 35.936 35.2874 33.231 31.8962 33.1708C30.8656 33.152 30.0263 32.3074 30.0263 31.286C30.0263 30.7837 30.2328 30.2946 30.5947 29.941C30.9565 29.5874 31.4529 29.3917 31.9625 29.3993C34.6035 29.4463 37.0834 30.4809 38.9438 32.3149C40.8194 34.1621 41.8519 36.6075 41.8519 39.1978C41.8519 41.7899 40.8194 44.2334 38.9438 46.0806C37.0834 47.9146 34.6035 48.9511 31.9606 48.9963C31.9493 48.9963 31.9398 48.9963 31.9284 48.9963C31.432 48.9963 30.947 48.8006 30.5928 48.4545C30.2309 48.1027 30.0244 47.6118 30.0244 47.1095C30.0244 46.0881 30.8637 45.2435 31.8943 45.2247L31.8962 45.2285Z" fill="#7209B7"/>
<path d="M30.7947 41.0392C31.8184 40.6182 32.3045 39.4529 31.8805 38.4365C31.4564 37.4201 30.2828 36.9374 29.2591 37.3584C28.2354 37.7794 27.7493 38.9447 28.1733 39.9611C28.5973 40.9776 29.771 41.4603 30.7947 41.0392Z" fill="#7209B7"/>
</svg>
